<svg width="27" height="28" viewBox="0 0 27 28" fill="none" xmlns="http://www.w3.org/2000/svg">
<g id="mail_30dp_166C0D_FILL0_wght400_GRAD0_opsz24 1">
<path id="Vector" d="M4.5 23.3334C3.88125 23.3334 3.35156 23.1049 2.91094 22.6479C2.47031 22.191 2.25 21.6417 2.25 21V7.00002C2.25 6.35835 2.47031 5.80905 2.91094 5.3521C3.35156 4.89516 3.88125 4.66669 4.5 4.66669H22.5C23.1188 4.66669 23.6484 4.89516 24.0891 5.3521C24.5297 5.80905 24.75 6.35835 24.75 7.00002V21C24.75 21.6417 24.5297 22.191 24.0891 22.6479C23.6484 23.1049 23.1188 23.3334 22.5 23.3334H4.5ZM13.5 15.1667L4.5 9.33335V21H22.5V9.33335L13.5 15.1667ZM13.5 12.8334L22.5 7.00002H4.5L13.5 12.8334ZM4.5 9.33335V7.00002V21V9.33335Z" fill="#166C0D"/>
</g>
</svg>
